<?xml version="1.0" encoding="utf-8"?>
<!-- Generator: Adobe Illustrator 16.0.0, SVG Export Plug-In . SVG Version: 6.00 Build 0)  -->
<!DOCTYPE svg PUBLIC "-//W3C//DTD SVG 1.1//EN" "http://www.w3.org/Graphics/SVG/1.1/DTD/svg11.dtd">
<svg version="1.1" id="图层_1" xmlns="http://www.w3.org/2000/svg" xmlns:xlink="http://www.w3.org/1999/xlink" x="0px" y="0px"
	 width="16px" height="16px" viewBox="0 0 16 16" enable-background="new 0 0 16 16" xml:space="preserve">
<path fill="#AAAEB5" d="M12.992,3.021H7.728C7.31,2.959,6.986,2.625,6.966,2.203V1.001C6.966,0.446,6.519,0,5.964,0H1.001
	C0.45,0,0,0.446,0,1.001v11.993C0,14.648,1.347,16,3.005,16h9.989C14.654,16,16,14.648,16,12.994V6.039
	C15.998,4.365,14.654,3.021,12.992,3.021z M14.529,12.316c0,1.285-1.1,2.328-2.455,2.328H3.923c-1.355,0-2.454-1.043-2.454-2.328
	V4.585h10.604c1.355,0,2.453,1.043,2.453,2.33v5.401H14.529z"/>
</svg>
