<?xml version="1.0" encoding="utf-8"?>
<!-- Generator: Adobe Illustrator 16.0.0, SVG Export Plug-In . SVG Version: 6.00 Build 0)  -->
<!DOCTYPE svg PUBLIC "-//W3C//DTD SVG 1.1//EN" "http://www.w3.org/Graphics/SVG/1.1/DTD/svg11.dtd">
<svg version="1.1" id="图层_1" xmlns="http://www.w3.org/2000/svg" xmlns:xlink="http://www.w3.org/1999/xlink" x="0px" y="0px"
	 width="16px" height="16px" viewBox="0 0 16 16" enable-background="new 0 0 16 16" xml:space="preserve">
<path d="M15.998,9.564c-0.004-0.59-0.273-1.17-0.771-1.551L12.02,5.92V5.702c0.023-0.025,0.082-0.085,0.158-0.178
	c0.492-0.585,0.787-1.338,0.787-2.161c0-1.856-1.506-3.362-3.363-3.362c-1.856,0-3.361,1.506-3.361,3.362
	c0,0.401,0.073,0.784,0.2,1.139C6.425,4.502,6.413,4.5,6.396,4.5c-1.856,0-3.362,1.507-3.362,3.362c0,0.824,0.295,1.578,0.785,2.162
	c0.079,0.094,0.136,0.153,0.158,0.18v0.218l-3.204,2.095c-0.809,0.617-1.022,1.76-0.456,2.627C0.643,15.634,1.153,15.926,1.696,16
	h0.551l0,0c0.554,0,2.526,0,4.426,0v-1.301c-1.767,0-3.627,0-3.773,0c-0.356,0-0.661,0-0.856,0H1.959
	c-0.176,0-0.334-0.073-0.449-0.188c-0.002-0.002-0.003-0.005-0.005-0.006c-0.027-0.028-0.052-0.058-0.073-0.091
	c-0.002,0-0.002-0.002-0.003-0.003c-0.008-0.013-0.012-0.024-0.019-0.037c-0.015-0.022-0.026-0.045-0.037-0.069
	c-0.01-0.022-0.016-0.048-0.023-0.072c-0.004-0.016-0.009-0.028-0.013-0.045c-0.006-0.037-0.01-0.076-0.01-0.11
	c0-0.003-0.001-0.009-0.001-0.013c0-0.207,0.1-0.406,0.287-0.529l3.677-2.406v-0.093V9.703C4.666,9.327,4.248,8.645,4.248,7.864
	c0-1.189,0.963-2.151,2.149-2.151c1.188,0,2.15,0.962,2.15,2.151c0,0.78-0.419,1.463-1.042,1.839v1.332v0.093l3.677,2.406
	c0.187,0.123,0.285,0.323,0.285,0.53c0,0.004-0.002,0.009-0.002,0.012c0,0.037-0.004,0.074-0.012,0.111
	c-0.002,0.016-0.008,0.028-0.012,0.045c-0.006,0.022-0.015,0.049-0.023,0.072c-0.01,0.023-0.021,0.047-0.037,0.068
	c-0.006,0.013-0.01,0.023-0.02,0.037c0,0.001,0,0.002-0.002,0.003c-0.021,0.032-0.047,0.063-0.072,0.091
	c-0.002,0.001-0.004,0.004-0.006,0.006c-0.113,0.115-0.273,0.188-0.449,0.188H10.75c-0.195,0-0.5,0-0.857,0
	c-0.051,0-0.326,0-0.738,0V16c0.646,0,1.154,0,1.394,0l0,0H11.1c0.543-0.074,1.055-0.366,1.379-0.861
	c0.564-0.865,0.354-2.008-0.455-2.627l-3.207-2.093v-0.218c0.021-0.025,0.082-0.085,0.158-0.18C9.465,9.438,9.76,8.686,9.76,7.861
	c0-0.896-0.354-1.71-0.925-2.313C8.768,5.477,8.46,5.217,8.249,5.03C8.184,4.976,8.121,4.92,8.063,4.86
	C8.061,4.859,8.061,4.858,8.059,4.857C8.058,4.856,8.057,4.855,8.057,4.854c-0.374-0.386-0.604-0.91-0.604-1.489
	c0-1.189,0.962-2.151,2.148-2.152c1.188,0.001,2.15,0.963,2.15,2.152c0,0.782-0.418,1.464-1.043,1.84v1.332v0.092l3.678,2.406
	c0.187,0.122,0.285,0.324,0.285,0.529V16H16V9.564H15.998z"/>
</svg>
