<?xml version="1.0" encoding="utf-8"?>
<!-- Generator: Adobe Illustrator 16.0.0, SVG Export Plug-In . SVG Version: 6.00 Build 0)  -->
<!DOCTYPE svg PUBLIC "-//W3C//DTD SVG 1.1//EN" "http://www.w3.org/Graphics/SVG/1.1/DTD/svg11.dtd">
<svg version="1.1" id="图层_1" xmlns="http://www.w3.org/2000/svg" xmlns:xlink="http://www.w3.org/1999/xlink" x="0px" y="0px"
	 width="20.004px" height="25.006px" viewBox="0 0 20.004 25.006" enable-background="new 0 0 20.004 25.006" xml:space="preserve">
<path fill="#FFFFFF" d="M13.127,17.607l-3.341-3.34c0.572-0.853,0.907-1.878,0.907-2.982c0-2.953-2.395-5.346-5.348-5.346
	C2.394,5.94,0,8.333,0,11.286c0,2.953,2.394,5.347,5.346,5.347c1.104,0,2.129-0.336,2.981-0.908l3.341,3.342L13.127,17.607z
	 M5.346,14.939c-1.958,0-3.544-1.634-3.544-3.654c0-2.018,1.586-3.654,3.544-3.654s3.546,1.637,3.546,3.654
	C8.892,13.305,7.304,14.939,5.346,14.939z"/>
</svg>
