<?xml version="1.0" encoding="utf-8"?>
<!-- Generator: Adobe Illustrator 16.0.0, SVG Export Plug-In . SVG Version: 6.00 Build 0)  -->
<!DOCTYPE svg PUBLIC "-//W3C//DTD SVG 1.1//EN" "http://www.w3.org/Graphics/SVG/1.1/DTD/svg11.dtd">
<svg version="1.1" id="图层_1" xmlns="http://www.w3.org/2000/svg" xmlns:xlink="http://www.w3.org/1999/xlink" x="0px" y="0px"
	 width="16px" height="16px" viewBox="0 0 16 16" enable-background="new 0 0 16 16" xml:space="preserve">
<path fill="#818589" d="M15.568,2.604C15.217,1.553,13.77,0,11.824,0c-1.047,0-2.572,1.164-3.825,2.416C6.752,1.164,5.221,0,4.174,0
	C2.229,0,0.779,1.553,0.43,2.604c-0.349,1.052-0.606,2.48-0.28,4.107c0.129,0.646,1.055,3.066,3.036,5.48
	C4.742,14.08,6.814,15.482,7.638,16h0.751c0.837-0.521,2.884-1.934,4.425-3.809c1.982-2.406,2.908-4.834,3.035-5.48
	C16.176,5.086,15.918,3.654,15.568,2.604z"/>
</svg>
