<?xml version="1.0" encoding="utf-8"?>
<!-- Generator: Adobe Illustrator 16.0.0, SVG Export Plug-In . SVG Version: 6.00 Build 0)  -->
<!DOCTYPE svg PUBLIC "-//W3C//DTD SVG 1.1//EN" "http://www.w3.org/Graphics/SVG/1.1/DTD/svg11.dtd">
<svg version="1.1" id="图层_1" xmlns="http://www.w3.org/2000/svg" xmlns:xlink="http://www.w3.org/1999/xlink" x="0px" y="0px"
	 width="16px" height="16px" viewBox="0 0 16 16" enable-background="new 0 0 16 16" xml:space="preserve">
<path fill="#818589" d="M15.998,9.564c-0.004-0.591-0.273-1.171-0.771-1.552L12.02,5.919V5.702c0.023-0.025,0.082-0.085,0.158-0.178
	c0.492-0.586,0.787-1.338,0.787-2.162C12.965,1.506,11.459,0,9.602,0C7.746,0,6.241,1.506,6.241,3.362c0,0.402,0.073,0.785,0.2,1.14
	C6.426,4.501,6.414,4.5,6.397,4.5c-1.856,0-3.362,1.507-3.362,3.362c0,0.824,0.295,1.578,0.785,2.162
	c0.079,0.092,0.136,0.152,0.158,0.178v0.219l-3.204,2.094c-0.809,0.617-1.022,1.76-0.456,2.627C0.644,15.633,1.154,15.926,1.697,16
	h0.551l0,0c0.554,0,2.526,0,4.425,0v-1.301c-1.766,0-3.627,0-3.773,0c-0.356,0-0.661,0-0.856,0H1.96
	c-0.176,0-0.334-0.074-0.449-0.189c-0.002-0.002-0.003-0.004-0.005-0.006c-0.027-0.027-0.052-0.057-0.073-0.09
	c-0.002,0-0.002-0.002-0.003-0.004c-0.008-0.012-0.012-0.023-0.019-0.037c-0.015-0.021-0.026-0.045-0.037-0.068
	c-0.01-0.023-0.016-0.049-0.023-0.072c-0.004-0.016-0.009-0.029-0.013-0.045c-0.006-0.037-0.01-0.076-0.01-0.111
	c0-0.004-0.001-0.008-0.001-0.012c0-0.207,0.1-0.408,0.287-0.531l3.677-2.406v-0.092V9.703c-0.625-0.377-1.043-1.06-1.043-1.839
	c0-1.189,0.963-2.151,2.149-2.151c1.187,0,2.15,0.962,2.15,2.151c0,0.779-0.42,1.462-1.041,1.839v1.332v0.092l3.675,2.406
	c0.188,0.123,0.287,0.324,0.287,0.531c0,0.004-0.002,0.008-0.002,0.012c0,0.037-0.004,0.074-0.012,0.111
	c-0.002,0.016-0.008,0.029-0.012,0.045c-0.006,0.023-0.014,0.049-0.023,0.072s-0.023,0.047-0.037,0.068
	c-0.006,0.014-0.01,0.025-0.02,0.037c0,0.002,0,0.002-0.002,0.004c-0.02,0.033-0.047,0.063-0.072,0.09
	c-0.002,0.002-0.004,0.004-0.006,0.006c-0.113,0.115-0.273,0.189-0.449,0.189H10.75c-0.195,0-0.5,0-0.857,0
	c-0.051,0-0.326,0-0.738,0V16c0.646,0,1.154,0,1.395,0l0,0H11.1c0.543-0.074,1.055-0.367,1.379-0.861
	c0.566-0.865,0.354-2.008-0.455-2.627l-3.207-2.094v-0.217c0.022-0.025,0.082-0.086,0.158-0.18C9.467,9.438,9.762,8.684,9.762,7.86
	c0-0.896-0.354-1.709-0.926-2.313C8.768,5.477,8.462,5.216,8.25,5.03c-0.066-0.055-0.129-0.11-0.186-0.17
	C8.062,4.858,8.062,4.858,8.06,4.856c-0.002,0-0.002-0.002-0.002-0.002c-0.375-0.387-0.604-0.91-0.604-1.489
	c0-1.189,0.961-2.151,2.148-2.152c1.188,0.001,2.15,0.963,2.15,2.152c0,0.782-0.418,1.464-1.043,1.84v1.332v0.092l3.678,2.407
	c0.186,0.121,0.285,0.324,0.285,0.529V16H16V9.564H15.998z"/>
</svg>
